<?xml version="1.0" encoding="UTF-8" standalone="no"?>
<!-- Created with Inkscape (http://www.inkscape.org/) -->

<svg
   xmlns:dc="http://purl.org/dc/elements/1.1/"
   xmlns:cc="http://creativecommons.org/ns#"
   xmlns:rdf="http://www.w3.org/1999/02/22-rdf-syntax-ns#"
   xmlns:svg="http://www.w3.org/2000/svg"
   xmlns="http://www.w3.org/2000/svg"
   xmlns:sodipodi="http://sodipodi.sourceforge.net/DTD/sodipodi-0.dtd"
   xmlns:inkscape="http://www.inkscape.org/namespaces/inkscape"
   width="600mm"
   height="300mm"
   viewBox="0 0 600 300"
   version="1.1"
   id="svg5913"
   inkscape:version="0.92.2 (5c3e80d, 2017-08-06)"
   sodipodi:docname="CONSOLE__21faders__2018-04-11__B_VERSO.svg">
  <defs
     id="defs5907" />
  <sodipodi:namedview
     id="base"
     pagecolor="#ffffff"
     bordercolor="#666666"
     borderopacity="1.0"
     inkscape:pageopacity="0.0"
     inkscape:pageshadow="2"
     inkscape:zoom="0.49497475"
     inkscape:cx="981.17248"
     inkscape:cy="356.3917"
     inkscape:document-units="mm"
     inkscape:current-layer="layer1"
     showgrid="false"
     inkscape:window-width="1920"
     inkscape:window-height="1017"
     inkscape:window-x="-8"
     inkscape:window-y="-8"
     inkscape:window-maximized="1" />
  <metadata
     id="metadata5910">
    <rdf:RDF>
      <cc:Work
         rdf:about="">
        <dc:format>image/svg+xml</dc:format>
        <dc:type
           rdf:resource="http://purl.org/dc/dcmitype/StillImage" />
        <dc:title />
      </cc:Work>
    </rdf:RDF>
  </metadata>
  <g
     inkscape:label="Layer 1"
     inkscape:groupmode="layer"
     id="layer1"
     transform="translate(0,3)">
    <g
       transform="matrix(0.28222199,0,0,0.28222199,80,253.49898)"
       id="g4771"
       style="fill:none;stroke:#ff0000;stroke-opacity:1">
      <path
         style="fill:none;stroke:#ff0000;stroke-width:0.90000075;stroke-opacity:1"
         d="M 113.38592,17.71655 V 0 h 28.34648 v 17.71655 h 28.34648 V 0 h 28.34648 v 17.71655 h 28.34648 V 0 h 28.34648 V 17.71655 H 283.4648 V 0 h 28.34648 v 17.71655 h 28.34648 V 0 h 28.34648 v 17.71655 h 28.34648 V 0 h 28.34648 v 17.71655 h 28.34648 V 0 h 28.34648 v 17.71655 h 28.34648 V 0 h 28.34648 V 17.71655 H 566.9296 V 0 h 28.34648 v 17.71655 h 28.34648 V 0 h 28.34648 v 17.71655 h 28.34648 V 0 H 708.662 v 17.71655 h 28.34648 V 0 h 28.34648 v 17.71655 h 28.34648 V 0 h 28.34648 V 17.71655 H 850.3944 V 0 h 28.34648 v 17.71655 h 28.34648 V 0 h 28.34648 v 17.71655 h 28.34648 V 0 h 28.34648 v 17.71655 h 28.3465 V 0 h 28.3465 v 17.71655 h 28.3464 V 0 h 28.3465 v 17.71655 h 28.3465 V 0 h 28.3465 v 17.71655 h 28.3465 V 0 h 28.3464 v 17.71655 h 28.3465 V 0 h 28.3465 v 17.71655 h 28.3465 V 0 h 28.3465 v 17.71655 h 28.3464 V 0 h 28.3465 v 17.71655 h 28.3465 V 0 h 28.3465 v 17.71655 h 28.3465 V 0 h 42.5197 v 17.71655 h 24.8031 v 10.62993 h 17.7166 v 28.34648 h -17.7166 v 28.34648 h 17.7166 v 28.34648 h -17.7166 v 10.62993 h -24.8031 v 17.71655 h -42.5197 v -17.71655 h -28.3465 v 17.71655 h -28.3465 v -17.71655 h -28.3465 v 17.71655 h -28.3465 v -17.71655 h -28.3464 v 17.71655 h -28.3465 v -17.71655 h -28.3465 v 17.71655 h -28.3465 v -17.71655 h -28.3465 v 17.71655 h -28.3464 v -17.71655 h -28.3465 v 17.71655 h -28.3465 v -17.71655 h -28.3465 v 17.71655 h -28.3465 v -17.71655 h -28.3464 v 17.71655 h -28.3465 V 124.01585 H 992.1268 V 141.7324 H 963.78032 V 124.01585 H 935.43384 V 141.7324 H 907.08736 V 124.01585 H 878.74088 V 141.7324 H 850.3944 V 124.01585 H 822.04792 V 141.7324 H 793.70144 V 124.01585 H 765.35496 V 141.7324 H 737.00848 V 124.01585 H 708.662 V 141.7324 H 680.31552 V 124.01585 H 651.96904 V 141.7324 H 623.62256 V 124.01585 H 595.27608 V 141.7324 H 566.9296 V 124.01585 H 538.58312 V 141.7324 H 510.23664 V 124.01585 H 481.89016 V 141.7324 H 453.54368 V 124.01585 H 425.1972 V 141.7324 H 396.85072 V 124.01585 H 368.50424 V 141.7324 H 340.15776 V 124.01585 H 311.81128 V 141.7324 H 283.4648 V 124.01585 H 255.11832 V 141.7324 H 226.77184 V 124.01585 H 198.42536 V 141.7324 H 170.07888 V 124.01585 H 141.7324 V 141.7324 H 113.38592 V 124.01585 H 85.03944 V 141.7324 H 42.51972 V 124.01585 H 17.71655 V 113.38592 H 0 V 85.03944 H 17.71655 V 56.69296 H 0 V 28.34648 H 17.71655 V 17.71655 H 42.51972 V 0 h 42.51972 v 17.71655 z"
         id="polygon4769"
         inkscape:connector-curvature="0" />
    </g>
    <g
       transform="matrix(0.28222199,0,0,0.28222199,79.998,0.49901668)"
       id="g4755"
       style="fill:none;stroke:#ff0000;stroke-width:0.88582748;stroke-miterlimit:4;stroke-dasharray:none;stroke-opacity:1">
      <path
         inkscape:connector-curvature="0"
         style="fill:none;stroke:#ff0000;stroke-width:0.88582748;stroke-miterlimit:4;stroke-dasharray:none;stroke-opacity:1"
         d="M 113.38592,0 V 17.71655 H 141.7324 V 0 h 28.34648 v 17.71655 h 28.34648 V 0 h 28.34648 v 17.71655 h 28.34648 V 0 h 28.34648 v 17.71655 h 28.34648 V 0 h 28.34648 v 17.71655 h 28.34648 V 0 h 28.34648 V 17.71655 H 425.1972 V 0 h 28.34648 v 17.71655 h 28.34648 V 0 h 28.34648 v 17.71655 h 28.34648 V 0 h 28.34648 v 17.71655 h 28.34648 V 0 h 28.34648 v 17.71655 h 28.34648 V 0 h 28.34648 V 17.71655 H 708.662 V 0 h 28.34648 v 17.71655 h 28.34648 V 0 h 28.34648 v 17.71655 h 28.34648 V 0 h 28.34648 v 17.71655 h 28.34648 V 0 h 28.34648 v 17.71655 h 28.34648 V 0 h 28.34648 V 17.71655 H 992.1268 V 0 h 28.3465 v 17.71655 h 28.3465 V 0 h 28.3464 v 17.71655 h 28.3465 V 0 h 28.3465 v 17.71655 h 28.3465 V 0 h 28.3465 v 17.71655 h 28.3464 V 0 h 28.3465 v 17.71655 h 28.3465 V 0 h 28.3465 v 17.71655 h 28.3465 V 0 h 28.3464 v 17.71655 h 28.3465 V 0 h 28.3465 v 17.71655 h 28.3465 V 0 h 28.3465 v 17.71655 h 42.5197 V 0 h 42.5197 v 44.291375 h -17.7166 V 88.58275 h 17.7166 v 28.34648 h -17.7166 v 28.34648 h 17.7166 v 28.34648 h -17.7166 v 28.34648 h 17.7166 v 28.34648 h -17.7166 v 28.34648 h 17.7166 v 28.34648 h -17.7166 v 28.34648 h 17.7166 v 28.34648 h -17.7166 v 28.34648 h 17.7166 v 28.34648 h -17.7166 v 28.34648 h 17.7166 v 28.34648 h -17.7166 v 28.34648 h 17.7166 v 28.34648 h -17.7166 v 28.34648 h 17.7166 v 28.34648 h -17.7166 v 28.34648 h 17.7166 v 28.34648 h -17.7166 v 28.34648 h 17.7166 v 28.34648 h -17.7166 v 28.34648 h 17.7166 v 28.34648 h -17.7166 v 28.34648 h 17.7166 v 28.34648 h -17.7166 v 44.29138 h 17.7166 v 44.29137 h -42.5197 v -17.71655 h -42.5197 v 17.71655 h -28.3465 v -17.71655 h -28.3465 v 17.71655 h -28.3465 v -17.71655 h -28.3465 v 17.71655 h -28.3464 v -17.71655 h -28.3465 v 17.71655 h -28.3465 v -17.71655 h -28.3465 v 17.71655 h -28.3465 v -17.71655 h -28.3464 v 17.71655 h -28.3465 v -17.71655 h -28.3465 v 17.71655 h -28.3465 v -17.71655 h -28.3465 v 17.71655 h -28.3464 v -17.71655 h -28.3465 V 885.8275 H 992.1268 V 868.11095 H 963.78032 V 885.8275 H 935.43384 V 868.11095 H 907.08736 V 885.8275 H 878.74088 V 868.11095 H 850.3944 V 885.8275 H 822.04792 V 868.11095 H 793.70144 V 885.8275 H 765.35496 V 868.11095 H 737.00848 V 885.8275 H 708.662 V 868.11095 H 680.31552 V 885.8275 H 651.96904 V 868.11095 H 623.62256 V 885.8275 H 595.27608 V 868.11095 H 566.9296 V 885.8275 H 538.58312 V 868.11095 H 510.23664 V 885.8275 H 481.89016 V 868.11095 H 453.54368 V 885.8275 H 425.1972 V 868.11095 H 396.85072 V 885.8275 H 368.50424 V 868.11095 H 340.15776 V 885.8275 H 311.81128 V 868.11095 H 283.4648 V 885.8275 H 255.11832 V 868.11095 H 226.77184 V 885.8275 H 198.42536 V 868.11095 H 170.07888 V 885.8275 H 141.7324 V 868.11095 H 113.38592 V 885.8275 H 85.03944 V 868.11095 H 42.51972 V 885.8275 H 0 V 841.53613 H 17.71655 V 797.24475 H 0 V 768.89827 H 17.71655 V 740.55179 H 0 V 712.20531 H 17.71655 V 683.85883 H 0 V 655.51235 H 17.71655 V 627.16587 H 0 V 598.81939 H 17.71655 V 570.47291 H 0 V 542.12643 H 17.71655 V 513.77995 H 0 V 485.43347 H 17.71655 V 457.08699 H 0 V 428.74051 H 17.71655 V 400.39403 H 0 V 372.04755 H 17.71655 V 343.70107 H 0 V 315.35459 H 17.71655 V 287.00811 H 0 V 258.66163 H 17.71655 V 230.31515 H 0 V 201.96867 H 17.71655 V 173.62219 H 0 V 145.27571 H 17.71655 V 116.92923 H 0 V 88.58275 H 17.71655 V 44.291375 H 0 V 0 H 42.51972 V 17.71655 H 85.03944 V 0 Z"
         id="polygon4753" />
    </g>
    <path
       inkscape:connector-curvature="0"
       style="fill:none;fill-opacity:1;stroke:#ff0000;stroke-width:0.25;stroke-linecap:round;stroke-linejoin:miter;stroke-miterlimit:4;stroke-dasharray:none;stroke-dashoffset:0;stroke-opacity:1"
       d="m 93.82486,12.371902 a 1.9540625,1.9540625 0 0 1 -1.95406,1.954054 1.9540625,1.9540625 0 0 1 -1.95408,-1.954054 1.9540625,1.9540625 0 0 1 1.95408,-1.95408 1.9540625,1.9540625 0 0 1 1.95406,1.95408 z"
       id="path5737" />
    <path
       inkscape:connector-curvature="0"
       style="fill:none;fill-opacity:1;stroke:#ff0000;stroke-width:0.25;stroke-linecap:round;stroke-linejoin:miter;stroke-miterlimit:4;stroke-dasharray:none;stroke-dashoffset:0;stroke-opacity:1"
       d="m 94.0289,238.42182 a 1.9540625,1.9540625 0 0 1 -1.95405,1.95405 1.9540625,1.9540625 0 0 1 -1.95408,-1.95405 1.9540625,1.9540625 0 0 1 1.95408,-1.95409 1.9540625,1.9540625 0 0 1 1.95405,1.95409 z"
       id="path5737-5" />
    <path
       inkscape:connector-curvature="0"
       style="fill:none;fill-opacity:1;stroke:#ff0000;stroke-width:0.25;stroke-linecap:round;stroke-linejoin:miter;stroke-miterlimit:4;stroke-dasharray:none;stroke-dashoffset:0;stroke-opacity:1"
       d="m 509.8749,12.575817 a 1.9540625,1.9540625 0 0 1 -1.95405,1.954053 1.9540625,1.9540625 0 0 1 -1.95408,-1.954053 1.9540625,1.9540625 0 0 1 1.95408,-1.954081 1.9540625,1.9540625 0 0 1 1.95405,1.954081 z"
       id="path5737-3" />
    <path
       inkscape:connector-curvature="0"
       style="fill:none;fill-opacity:1;stroke:#ff0000;stroke-width:0.25;stroke-linecap:round;stroke-linejoin:miter;stroke-miterlimit:4;stroke-dasharray:none;stroke-dashoffset:0;stroke-opacity:1"
       d="m 509.8749,238.42182 a 1.9540625,1.9540625 0 0 1 -1.95405,1.95405 1.9540625,1.9540625 0 0 1 -1.95408,-1.95405 1.9540625,1.9540625 0 0 1 1.95408,-1.95409 1.9540625,1.9540625 0 0 1 1.95405,1.95409 z"
       id="path5737-6" />
    <path
       style="fill:none;fill-opacity:1;stroke:#ff0000;stroke-width:0.25000003;stroke-linecap:round;stroke-linejoin:miter;stroke-miterlimit:4;stroke-dasharray:none;stroke-dashoffset:0;stroke-opacity:1"
       d="m 105.15006,139.74903 c -2.49754,0 -4.56891,1.75938 -5.04775,4.11138 -0.0513,0.25199 -0.0844,0.51045 -0.0977,0.77463 -0.004,0.088 -0.007,0.17693 -0.007,0.26613 v 19.44584 51.89761 7.75866 1.34359 c 0,2.85431 2.29785,5.15214 5.15215,5.15214 h 1.34358 18.10226 180.55416 18.10226 c 3.55109,0.0245 6.49574,-4.12922 6.49574,-6.49573 v -7.75866 -51.89761 -19.44584 c 0,-0.0892 -0.003,-0.17808 -0.007,-0.26613 -0.0132,-0.26418 -0.0464,-0.52264 -0.0977,-0.77463 -0.47884,-2.352 -2.55024,-4.11138 -5.04777,-4.11138 h -19.44584 -11.99984 c -2.85432,0 -5.15212,2.29783 -5.15212,5.15214 v 52.44593 c 0,2.85431 2.2978,5.15214 5.15212,5.15214 h 6.98667 c 7.52819,0 7.86104,0.17897 7.86104,7.39903 0,8.54559 0.0937,8.85062 -8.76589,8.85062 h -168.7173 c -8.8596,0 -8.76586,-0.30503 -8.76586,-8.85062 0,-7.22006 0.33284,-7.39903 7.86101,-7.39903 h 6.98666 c 2.85433,0 5.15216,-2.29783 5.15216,-5.15214 v -52.44593 c 0,-2.85431 -2.29783,-5.15214 -5.15216,-5.15214 h -11.99983 z"
       id="rect5779"
       inkscape:connector-curvature="0"
       sodipodi:nodetypes="sccscccsscccccccsccscsssssssssssssscs" />
    <g
       id="g5861"
       transform="matrix(-0.26458333,0,0,-0.26458333,1304.8143,351.26295)">
      <path
         id="path5737-8"
         d="m 3280.5242,498.4103 a 7.3854332,7.3854332 0 0 1 -7.3854,7.3854 7.3854332,7.3854332 0 0 1 -7.3855,-7.3854 7.3854332,7.3854332 0 0 1 7.3855,-7.3855 7.3854332,7.3854332 0 0 1 7.3854,7.3855 z"
         style="fill:none;fill-opacity:1;stroke:#ff0000;stroke-width:0.94488192;stroke-linecap:round;stroke-linejoin:miter;stroke-miterlimit:4;stroke-dasharray:none;stroke-dashoffset:0;stroke-opacity:1"
         inkscape:connector-curvature="0" />
      <path
         id="path5737-9"
         d="m 3375.0128,498.4103 a 7.3854332,7.3854332 0 0 1 -7.3854,7.3854 7.3854332,7.3854332 0 0 1 -7.3855,-7.3854 7.3854332,7.3854332 0 0 1 7.3855,-7.3855 7.3854332,7.3854332 0 0 1 7.3854,7.3855 z"
         style="fill:none;fill-opacity:1;stroke:#ff0000;stroke-width:0.94488192;stroke-linecap:round;stroke-linejoin:miter;stroke-miterlimit:4;stroke-dasharray:none;stroke-dashoffset:0;stroke-opacity:1"
         inkscape:connector-curvature="0" />
    </g>
  </g>
</svg>
